<svg width="20" height="20" viewBox="0 0 20 20" fill="none" xmlns="http://www.w3.org/2000/svg">
<g opacity="0.8">
<path fill-rule="evenodd" clip-rule="evenodd" d="M7.41406 2H2L2 4.875H7.41406V2ZM2 0C0.895431 0 0 0.895431 0 2V4.875C0 5.97957 0.89543 6.875 2 6.875H7.41406C8.51863 6.875 9.41406 5.97957 9.41406 4.875V2C9.41406 0.89543 8.51863 0 7.41406 0H2Z" fill="#F9F7F3"/>
<path fill-rule="evenodd" clip-rule="evenodd" d="M18 15.125H12.5859L12.5859 18H18V15.125ZM12.5859 13.125C11.4814 13.125 10.5859 14.0204 10.5859 15.125V18C10.5859 19.1046 11.4814 20 12.5859 20H18C19.1046 20 20 19.1046 20 18V15.125C20 14.0204 19.1046 13.125 18 13.125H12.5859Z" fill="#F9F7F3"/>
<path fill-rule="evenodd" clip-rule="evenodd" d="M7.41406 10.0469H2L2 18H7.41406V10.0469ZM2 8.04688C0.895431 8.04688 0 8.94231 0 10.0469V18C0 19.1046 0.89543 20 2 20H7.41406C8.51863 20 9.41406 19.1046 9.41406 18V10.0469C9.41406 8.94231 8.51863 8.04688 7.41406 8.04688H2Z" fill="#F9F7F3"/>
<path fill-rule="evenodd" clip-rule="evenodd" d="M18 2H12.5859L12.5859 9.95312H18V2ZM12.5859 0C11.4814 0 10.5859 0.89543 10.5859 2V9.95312C10.5859 11.0577 11.4814 11.9531 12.5859 11.9531H18C19.1046 11.9531 20 11.0577 20 9.95312V2C20 0.895431 19.1046 0 18 0H12.5859Z" fill="#F9F7F3"/>
</g>
</svg>
