<svg width="21" height="20" viewBox="0 0 21 20" fill="none" xmlns="http://www.w3.org/2000/svg">
<g opacity="0.8">
<path fill-rule="evenodd" clip-rule="evenodd" d="M0 8.66302C0 5.53239 2.53788 2.99451 5.66851 2.99451H15.116C18.2467 2.99451 20.7845 5.53239 20.7845 8.66302V14.3315C20.7845 17.4622 18.2467 20 15.116 20H5.66851C2.53788 20 0 17.4622 0 14.3315V8.66302ZM5.66851 4.88401C3.58142 4.88401 1.8895 6.57593 1.8895 8.66302V14.3315C1.8895 16.4186 3.58142 18.1105 5.66851 18.1105H15.116C17.2031 18.1105 18.895 16.4186 18.895 14.3315V8.66302C18.895 6.57593 17.2031 4.88401 15.116 4.88401H5.66851Z" fill="#37B778"/>
<path fill-rule="evenodd" clip-rule="evenodd" d="M16.0608 4.41159C16.0608 2.81522 14.5956 1.62094 13.032 1.94286L4.90646 3.61576C3.14995 3.9774 1.8895 5.52378 1.8895 7.31714V10.5525H0V7.31714C0 4.6271 1.89066 2.30753 4.52544 1.76507L12.651 0.0921691C15.3867 -0.471067 17.9503 1.6185 17.9503 4.41159H16.0608Z" fill="#37B778"/>
<path fill-rule="evenodd" clip-rule="evenodd" d="M3.7793 14.804C3.7793 14.2822 4.20228 13.8593 4.72405 13.8593H10.3926C10.9143 13.8593 11.3373 14.2822 11.3373 14.804C11.3373 15.3258 10.9143 15.7488 10.3926 15.7488H4.72405C4.20228 15.7488 3.7793 15.3258 3.7793 14.804Z" fill="#37B778"/>
<path fill-rule="evenodd" clip-rule="evenodd" d="M12.2812 11.4973C12.2812 9.6711 13.7617 8.19067 15.5879 8.19067H20.784V14.8039H15.5879C13.7617 14.8039 12.2812 13.3235 12.2812 11.4973ZM15.5879 10.0802C14.8052 10.0802 14.1708 10.7146 14.1708 11.4973C14.1708 12.28 14.8052 12.9144 15.5879 12.9144H18.8945V10.0802H15.5879Z" fill="#37B778"/>
</g>
</svg>
