<svg width="20" height="20" viewBox="0 0 20 20" fill="none" xmlns="http://www.w3.org/2000/svg">
<g opacity="0.8">
<path fill-rule="evenodd" clip-rule="evenodd" d="M9.53356 8.18183C10.5377 8.18183 11.3517 8.99586 11.3517 10C11.3517 11.0042 10.5377 11.8182 9.53356 11.8182C8.5294 11.8182 7.71538 11.0042 7.71538 10C7.71538 8.99586 8.5294 8.18183 9.53356 8.18183ZM13.1699 10C13.1699 7.9917 11.5419 6.36365 9.53356 6.36365C7.52525 6.36365 5.8972 7.9917 5.8972 10C5.8972 12.0083 7.52525 13.6364 9.53356 13.6364C11.5419 13.6364 13.1699 12.0083 13.1699 10Z" fill="#37B778"/>
<path fill-rule="evenodd" clip-rule="evenodd" d="M7.06981 0.306053C7.85893 0.106039 8.68459 0 9.53372 0C10.3803 0 11.2036 0.105404 11.9905 0.304256C12.7297 0.491024 13.0979 1.12454 13.214 1.62663C13.324 2.1023 13.622 2.52979 14.0765 2.79223C14.4948 3.03374 14.9672 3.09033 15.4035 2.98716C15.9049 2.86861 16.6345 2.91798 17.1296 3.49568C17.9303 4.43003 18.5622 5.51459 18.9769 6.702C19.2615 7.51722 18.8167 8.23396 18.3779 8.59529C17.9711 8.93022 17.7142 9.43471 17.7142 9.99996C17.7142 10.5652 17.9711 11.0697 18.3779 11.4046C18.8168 11.766 19.2616 12.4827 18.9769 13.2979C18.5623 14.485 17.9308 15.5692 17.1304 16.5034C16.6355 17.0809 15.9062 17.1306 15.4049 17.0123C14.9688 16.9094 14.4968 16.9661 14.0788 17.2074C13.6243 17.4698 13.3263 17.8973 13.2163 18.3729C13.1002 18.8749 12.7321 19.5081 11.9933 19.695C11.2055 19.8943 10.3813 20 9.53372 20C8.68579 20 7.86127 19.8943 7.07315 19.6948C6.33447 19.5078 5.96643 18.8747 5.85034 18.3728C5.74033 17.8973 5.44238 17.4699 4.98789 17.2075C4.56995 16.9662 4.0981 16.9095 3.66208 17.0123C3.16084 17.1304 2.43169 17.0807 1.93693 16.5032C1.136 15.5684 0.504138 14.4833 0.0896437 13.2953C-0.194462 12.481 0.249225 11.7649 0.687339 11.4035C1.09334 11.0686 1.34964 10.5646 1.34964 9.99996C1.34964 9.43533 1.09335 8.93133 0.68735 8.5964C0.24924 8.23498 -0.194443 7.51894 0.0896701 6.70464C0.504106 5.51683 1.13584 4.43187 1.93659 3.49717C2.431 2.92004 3.1596 2.86998 3.66066 2.98776C4.09636 3.09018 4.56773 3.03338 4.9853 2.79229C5.43965 2.52997 5.73755 2.10276 5.84765 1.62735C5.96381 1.12579 6.33167 0.493146 7.06981 0.306053ZM7.61756 2.04358C7.39741 2.9869 6.80105 3.84342 5.89439 4.36688C5.06228 4.8473 4.11716 4.96128 3.25052 4.75909C2.6505 5.47758 2.17182 6.29991 1.84526 7.19461C2.65147 7.86013 3.16783 8.87013 3.16783 9.99996C3.16783 11.1298 2.65146 12.1398 1.84524 12.8053C2.17185 13.7002 2.65061 14.5226 3.25076 15.2412C4.11804 15.0383 5.06411 15.152 5.89698 15.6329C6.80393 16.1565 7.40038 17.0134 7.62035 17.9571C8.23329 18.1039 8.87382 18.1818 9.53372 18.1818C10.1933 18.1818 10.8336 18.1039 11.4463 17.9573C11.6662 17.0135 12.2627 16.1565 13.1697 15.6328C14.0028 15.1518 14.9491 15.0382 15.8166 15.2413C16.4163 14.5233 16.8948 13.7016 17.2214 12.8076C16.4136 12.1421 15.8961 11.1311 15.8961 9.99996C15.8961 8.86885 16.4136 7.85785 17.2214 7.19236C16.8946 6.29805 16.4159 5.4761 15.816 4.75794C14.9481 4.96163 14.001 4.8481 13.1674 4.36682C12.2603 3.84311 11.6639 2.98601 11.444 2.04217C10.832 1.89586 10.1925 1.81818 9.53372 1.81818C8.87282 1.81818 8.23133 1.89636 7.61756 2.04358Z" fill="#37B778"/>
</g>
</svg>
