<svg width="20" height="20" viewBox="0 0 20 20" fill="none" xmlns="http://www.w3.org/2000/svg">
<g opacity="0.8">
<path fill-rule="evenodd" clip-rule="evenodd" d="M3 3H14C15.1046 3 16 3.89543 16 5V12H17V5C17 3.34315 15.6569 2 14 2H3C1.34315 2 0 3.34315 0 5V17C0 18.6569 1.34315 20 3 20H10V19H3C1.89543 19 1 18.1046 1 17V5C1 3.89543 1.89543 3 3 3Z" fill="#37B778"/>
<rect x="3" y="8" width="11" height="1.2" rx="0.6" fill="#37B778"/>
<rect x="3" y="11.2" width="10" height="1.2" rx="0.6" fill="#37B778"/>
<rect x="3" y="14.3999" width="8" height="1.2" rx="0.6" fill="#37B778"/>
<path d="M3.5 1C3.5 0.447715 3.94772 0 4.5 0H12.5C13.0523 0 13.5 0.447715 13.5 1V4C13.5 4.55228 13.0523 5 12.5 5H4.5C3.94772 5 3.5 4.55228 3.5 4V1Z" fill="#37B778"/>
<path fill-rule="evenodd" clip-rule="evenodd" d="M15.5 20C13.567 20 12 18.433 12 16.5C12 14.567 13.567 13 15.5 13C17.433 13 19 14.567 19 16.5C19 18.433 17.433 20 15.5 20ZM17.0209 16.0757C17.2161 15.8805 17.2161 15.5639 17.0209 15.3686C16.8256 15.1734 16.509 15.1734 16.3138 15.3686L15.1118 16.5706L14.6875 16.1464C14.4923 15.9511 14.1757 15.9511 13.9804 16.1464C13.7852 16.3417 13.7852 16.6582 13.9804 16.8535L14.7582 17.6313C14.852 17.725 14.9792 17.7777 15.1118 17.7777C15.2444 17.7777 15.3715 17.725 15.4653 17.6313L17.0209 16.0757Z" fill="#37B778"/>
<rect x="5" y="19" width="6" height="1" rx="0.5" fill="#37B778"/>
<rect x="17" y="6" width="6" height="1" rx="0.5" transform="rotate(90 17 6)" fill="#37B778"/>
</g>
</svg>
