<svg xmlns="http://www.w3.org/2000/svg" xmlns:xlink="http://www.w3.org/1999/xlink" viewBox="0 0 137.04 204"><defs><style>.cls-1{fill:#fff;}.cls-2{opacity:0.15;}.cls-3{mask:url(#mask);}.cls-4{fill:#37b778;}</style><mask id="mask" x="-0.08" y="0" width="138" height="204" maskUnits="userSpaceOnUse"><g id="path-1-outside-1_155_19613" data-name="path-1-outside-1 155 19613"><rect class="cls-1" x="-0.08" width="138" height="204"/><path d="M125,12V192h-61V34.56L91.2,59.76,12,73.68V26.4L79.92,12Z"/></g></mask></defs><g id="Layer_2" data-name="Layer 2"><g id="Layer_1-2" data-name="Layer 1"><g class="cls-2"><g class="cls-3"><path class="cls-4" d="M125,12h12V0H125Zm0,180v12h12V192Zm-61,0h-12v12h12Zm0-157.44,8.17-8.79L52.08,7V34.56ZM91.2,59.76l2.08,11.82,23.77-4.18L99.37,51ZM12,73.68H0V88L14.08,85.5ZM12,26.4,9.51,14.66,0,16.68V26.4ZM79.92,12V0H78.66L77.43.26ZM113,12V192h24V12Zm12,168h-61v24h61Zm-49,12V34.56h-24V192ZM55.91,43.35,83,68.55,99.37,51,72.25,25.77Zm33.21,4.59L9.92,61.86,14.08,85.5l79.2-13.92ZM24,73.68V26.4H0V73.68ZM14.49,38.14l67.92-14.4L77.43.26,9.51,14.66ZM79.92,24H125V0H79.92Z"/></g></g></g></g></svg>