<svg xmlns="http://www.w3.org/2000/svg" xmlns:xlink="http://www.w3.org/1999/xlink" viewBox="0 0 216.92 212.64"><defs><style>.cls-1{fill:#fff;}.cls-2{opacity:0.15;}.cls-3{mask:url(#mask);}.cls-4{fill:#00aeef;}</style><mask id="mask" x="-0.84" y="-0.68" width="218" height="214" maskUnits="userSpaceOnUse"><g id="path-1-outside-1_155_19640" data-name="path-1-outside-1 155 19640"><rect class="cls-1" x="-0.84" y="-0.68" width="218" height="214"/><path d="M17,76.32A56.51,56.51,0,0,1,29,44.4Q40.28,29.76,61.64,20.88,83.24,12,114.44,12q26.16,0,45.6,6.48t30.24,18a38.07,38.07,0,0,1,10.8,26.88,36.37,36.37,0,0,1-7.44,22.08q-7.2,10.08-23.52,16.08-16.32,5.76-43.2,5.52v-5.28q24.48-1.2,41.76,2.88,17.52,4.08,26.88,13.68t9.36,25.2a44.26,44.26,0,0,1-11,29.52q-11,12.72-32.16,20.16t-51.36,7.44q-29.28,0-51.12-7.92T25.16,170.16q-12-14.64-12.72-34.56H73.88q1.44,8.88,9.84,13.68,8.64,4.8,26.64,4.8,14.88,0,23.28-3.84,8.4-4.08,8.4-11.52a10.25,10.25,0,0,0-2.64-7.2q-2.4-2.88-9.36-4.08Q123.32,126,110.6,126H80.84V85.92H110.6q16.8,0,22.56-3.6,6-3.6,6-9.84,0-7-7.44-10.32-7.2-3.6-20.64-3.6-15.6,0-23.52,4.8a18.08,18.08,0,0,0-9.12,13Z"/></g></mask></defs><g id="Layer_2" data-name="Layer 2"><g id="Layer_1-2" data-name="Layer 1"><g class="cls-2"><g class="cls-3"><path class="cls-4" d="M17,76.32,5,75.66,4.33,88.32H17ZM29,44.4l-9.5-7.32h0ZM61.64,20.88,57.08,9.78h0Zm98.4-2.4,3.8-11.38h0Zm30.24,18-8.75,8.21h0Zm3.36,49L184,78.31l-.06.08-.05.08Zm-23.52,16.08,4,11.32.07,0,.07,0ZM126.92,107h-12v11.89l11.89.11Zm0-5.28-.59-12-11.41.56v11.43Zm41.76,2.88-2.76,11.68h0Zm26.88,13.68L187,126.7h0ZM193.88,173l9.06,7.87,0,0,0,0ZM161.72,193.2l4,11.32Zm-102.48-.48L55.15,204ZM25.16,170.16l-9.28,7.61,0,0,0,.05ZM12.44,135.6v-12H0L.45,136Zm61.44,0,11.85-1.92L84.09,123.6H73.88Zm9.84,13.68-6,10.42.06,0,.06,0Zm49.92,1,5,10.91.13-.06.12-.06Zm5.76-18.72-9.22,7.68.18.22.2.21ZM130,127.44l-2.51,11.73.23.05.24.05ZM80.84,126h-12v12h12Zm0-40.08v-12h-12v12Zm52.32-3.6L127,72l-.1.06-.09,0Zm-1.44-20.16-5.37,10.73.22.11.21.1Zm-44.16,1.2,6.13,10.32,0,0,0,0Zm-9.12,13v12H88.56l1.71-10ZM29,77A44.58,44.58,0,0,1,38.52,51.7l-19-14.6A68.52,68.52,0,0,0,5,75.66Zm9.53-25.26c6-7.73,15-14.44,27.74-19.76L57,9.8C41.34,16.32,28.58,25.29,19.5,37.08ZM66.2,32c12.56-5.16,28.51-8,48.24-8V0C92.57,0,73.32,3.1,57.08,9.78Zm48.24-8c16.49,0,30.36,2.05,41.81,5.86L163.84,7.1c-14.47-4.83-31-7.1-49.4-7.1Zm41.81,5.86c11.61,3.88,19.79,9,25.28,14.83L199,28.27c-8.91-9.5-20.9-16.41-35.2-21.17Zm25.28,14.83a26.06,26.06,0,0,1,7.55,18.67h24a50.07,50.07,0,0,0-14-35.09Zm7.55,18.67a24.35,24.35,0,0,1-5.09,15L203.3,92.57a48.39,48.39,0,0,0,9.78-29.21Zm-5.2,15.11c-2.94,4.11-8.4,8.3-17.9,11.79l8.28,22.52c12.26-4.51,22.48-11,29.15-20.37ZM166.13,90.2c-9,3.2-21.89,5-39.1,4.84l-.22,24c18.64.17,34.59-1.72,47.31-6.2ZM138.92,107v-5.28h-24V107Zm-11.41,6.71c15.59-.77,28.32.18,38.41,2.57L171.44,93c-12.94-3-28.06-4-45.11-3.19ZM166,116.33c10.19,2.37,16.83,6.08,21,10.37l17.18-16.76c-8.3-8.51-19.58-13.92-32.75-17Zm21,10.37c3.7,3.79,5.95,9,5.95,16.82h24c0-13-4-24.57-12.77-33.58Zm5.95,16.82a32.32,32.32,0,0,1-8.17,21.74L203,180.82a56.24,56.24,0,0,0,13.9-37.3Zm-8.1,21.65c-5.62,6.48-14.34,12.22-27.09,16.71l8,22.64c15.42-5.43,28.13-13.13,37.23-23.61Zm-27.09,16.71c-12.43,4.38-28.12,6.76-47.37,6.76v24c21.07,0,39.63-2.58,55.35-8.12Zm-47.37,6.76c-18.47,0-34.07-2.5-47-7.2L55.15,204c16.16,5.86,34.64,8.64,55.21,8.64Zm-47-7.2c-13-4.72-22.43-11.16-29-19L16,177.86C25.74,189.56,39,198.16,55.15,204ZM34.44,162.55c-6.24-7.61-9.62-16.58-10-27.38L.45,136c.57,15.76,5.67,29.83,15.43,41.74Zm-22-15H73.88v-24H12.44ZM62,137.52c1.58,9.8,7.25,17.34,15.73,22.18l11.91-20.84c-2.73-1.56-3.62-3.14-4-5.18Zm15.85,22.25c8.48,4.71,19.86,6.31,32.47,6.31v-24c-11.38,0-17.76-1.6-20.81-3.29Zm32.47,6.31c10.71,0,20.44-1.35,28.27-4.93l-10-21.82c-3.36,1.53-9.16,2.75-18.29,2.75ZM138.88,161c8.47-4.11,15.16-11.5,15.16-22.31H130c0,.1,0,0,0-.13a1.16,1.16,0,0,1,.17-.34,5.74,5.74,0,0,1-1.85,1.2ZM154,138.72a22.22,22.22,0,0,0-5.79-15.31l-17.69,16.22a1.55,1.55,0,0,1-.24-.32,2.06,2.06,0,0,1-.21-.42c-.1-.28-.07-.38-.07-.17Zm-5.42-14.88c-4.46-5.36-11.26-7.31-16.54-8.23L128,139.27a14.21,14.21,0,0,1,3.07.79c.43.19-.14,0-.89-.86Zm-16.06-8.13c-5.73-1.23-13.22-1.71-22-1.71v24c8.22,0,13.7.48,16.93,1.17Zm-22-1.71H80.84v24H110.6ZM92.84,126V85.92h-24V126Zm-12-28.08H110.6v-24H80.84Zm29.76,0a103.55,103.55,0,0,0,15.93-1,34.9,34.9,0,0,0,13-4.37L126.8,72.14a15,15,0,0,1-4,1,79.32,79.32,0,0,1-12.15.75Zm28.74-5.31c7.09-4.25,11.82-11.18,11.82-20.13h-24c0,.07,0,0,0-.16a1.75,1.75,0,0,1,.22-.51,1,1,0,0,1,.12-.17A4.5,4.5,0,0,1,127,72Zm11.82-20.13A22.1,22.1,0,0,0,147,59.4a25.55,25.55,0,0,0-10.38-8.18L126.78,73.1c1.1.49,1.08.74.79.34a2.49,2.49,0,0,1-.35-.69c-.07-.24-.06-.35-.06-.27ZM137.09,51.43c-7.23-3.62-16.28-4.87-26-4.87v24c8.19,0,12.9,1.15,15.27,2.33Zm-26-4.87c-11.26,0-21.7,1.67-29.74,6.54L93.78,73.62c2.52-1.53,7.76-3.06,17.3-3.06ZM81.44,53A30.09,30.09,0,0,0,66.61,74.29l23.66,4.06a6.15,6.15,0,0,1,3.42-4.67Zm-3,11.28H17v24H78.44Z"/></g></g></g></g></svg>